<svg id="图层_1" data-name="图层 1" xmlns="http://www.w3.org/2000/svg" viewBox="0 0 377 155"><defs><style>.cls-1{fill:#719d2f;}.cls-1,.cls-2,.cls-3,.cls-4,.cls-5{fill-rule:evenodd;}.cls-2{fill:#7fbe26;}.cls-3{fill:#005589;}.cls-4{fill:#00a2d8;}.cls-5{fill:#231815;}</style></defs><title>皓然科技</title><path class="cls-1" d="M159.5,371c-45.34,0-82.09-36.47-82.09-81.46,0-1.72,0-3.44.16-5.14a68.23,68.23,0,0,0-3.07,20.32c0,38,31.05,68.81,69.34,68.81a69.87,69.87,0,0,0,18.92-2.59C161.68,371,160.59,371,159.5,371Z" transform="translate(-74.5 -218.5)"/><path class="cls-2" d="M159.32,279.41,153,272.54a214.88,214.88,0,0,1-46.37,47.7,114.29,114.29,0,0,1-23.26-56,84.42,84.42,0,0,0-1.78,17.31c0,46.88,38.3,84.88,85.54,84.88a86.47,86.47,0,0,0,18.54-2A116.27,116.27,0,0,1,117,331.88c23.49-14.71,103.18-70.25,93.27-103.64-2.24-7.56-11-11.25-29.05-9.16,0,0,62.4,17.1-67.26,109.69q-2.43-2.56-4.7-5.27C109.37,323.39,142.44,299.58,159.32,279.41Z" transform="translate(-74.5 -218.5)"/><path class="cls-3" d="M126.93,333s102.29-51.65,88.46-93.92c0,0,16,1.81,13.83,18.07-.91,6.79-7.54,16.89-19.69,28.12a68.73,68.73,0,0,1,.06,41.14l.17-5.13a80.58,80.58,0,0,0-6-30.92l.58-.48C187.12,304.39,161.22,320.21,126.93,333Z" transform="translate(-74.5 -218.5)"/><path class="cls-4" d="M101.73,246.14A116.25,116.25,0,0,1,172,280.5c3.61-3.77,6.73-7.31,9.41-10.65a85.59,85.59,0,0,0-61.08-25.67A87.13,87.13,0,0,0,101.73,246.14Z" transform="translate(-74.5 -218.5)"/><path class="cls-4" d="M198.33,294.73q-4.62,3.56-9.9,7.16a114,114,0,0,1,15.36,44.67,84.51,84.51,0,0,0-5.46-51.83Z" transform="translate(-74.5 -218.5)"/><path class="cls-3" d="M127.87,239.67A82.16,82.16,0,0,1,186,263.76a80.87,80.87,0,0,0,4.93-7.89,70,70,0,0,0-66.28-16.15C125.69,239.68,126.78,239.66,127.87,239.67Z" transform="translate(-74.5 -218.5)"/><path class="cls-5" d="M283.91,255.12H285v-3.35h6.37v3.35h7.69v5.77h-7.87v5.77h8.25v5.59H275.28v-5.59H285v-5.77h-3L280.9,262a4.72,4.72,0,0,1-3.37.93h-2.25v-4.65c.75.12,1.43-.62,2.06-2.24l.94-3.53h6l-.37,2.6Zm-8.25,19h23.25v15.82q-.2,3.52-4.69,3.72H275.66V274.11Zm17.25,14.14v-8.56H281.84v8.93h10.32a.76.76,0,0,0,.75-.37Zm-25-27.36h-4.88v8.94H268v-8.94ZM268,276h-4.88V287.5h3.76c.75.13,1.12-.31,1.12-1.3V276Zm1.69,17.68H256.52v-40.2H262l.38-2h7.31l-.37,2.24h4.87v35.17c.25,3.47-1.25,5.09-4.5,4.84Zm38.11-38.34H310c.88.12,1.44-.31,1.69-1.3l.56-2.24H319l-.57,1.68H329l-.38,3.72h6.75l.75-5.21h6.75l-.75,5H343c.63,0,.94-.38.94-1.12v-2.23h5.81v5.58c.13,2.23-1,3.29-3.38,3.16h-4.87l-.18,1.87h3.93l2.44,12.09c.12.75.44,1.06.94.93h1.12v5.4h-4.69c-2.5.24-3.74-.49-3.74-2.23l-1.69-8-2.07,8.19c-.13,1.61-1.31,2.29-3.56,2.05h-6v-5.21h2.43c.63.12,1.07-.31,1.32-1.3l3-13.78H328l-1.88,17.13c0,2.48-1.12,3.53-3.38,3.16H307.57v-5.21h11.07c.63.12,1-.25,1.12-1.12l.19-.93h-7.69c-1.88.25-2.93-.44-3.19-2.05l-1.5-4.46h6.57l.37.93a.85.85,0,0,0,1.13.74h4.69l.38-2.79h-9q-2.82.38-3-1.86l-.94-3.91h6.38l.19.56q.18.93.93.75h5.81l.38-4.47h-4.31l-.19.55c-.24.87-1,1.25-2.25,1.12h-6.94v-5.21Zm-.38,38.52v-5h1.13c.5.12.94-.12,1.31-.74l1.88-3.54h6.37l-2.62,6.33q-1.12,3.17-3.56,3Zm37.89.19q-2.82.38-3.75-3.54l-2.44-5.76h6.38l1.69,3.53q.18,1.13,1.68.93h.76V294Zm-9.75,0h4.69v-5h-.75c-1.13.12-1.75-.19-1.88-.93l-1.87-3.54H329l2.62,6c.75,2.61,2.07,3.79,3.94,3.54Zm-10.13-.19c-1.75.26-3.06-.93-3.94-3.53L319,284.53h6.56l1.87,3.54c.13.74.69,1.05,1.69.93h.75v4.83Zm33.24-39.45h13.31a1,1,0,0,0,1.12-1.12v-.74h6.57v2q.38,5.21-5.25,4.65h-1.5V262h6.94v5.4H372.5v26.8h-6v-26.8h-8.06V262h8.06V259.4h-7.87v-5Zm27.19,25.87c-3.25.25-4.81-1.12-4.69-4.09l-.94-7.26h6.38l.75,4.65c.25,1.24.88,1.8,1.88,1.68h1.5v5Zm-5.63-25.87h6.38l.75,5.39c.12,1.37.69,2,1.69,1.87h1.87v5.21h-6c-2.13.37-3.37-1.12-3.75-4.47l-.94-8Zm-14.81,34.8.37-20.28h-5.63L359.56,287c-.24,1.12-.5,1.61-.75,1.49h-.37v5h2.44q4.68.38,4.5-4.28Zm7.88-20.28.18,19.91c-.12,3.23,1.06,4.71,3.57,4.47h2.62v-3l12-1.12v5.22h6.18v-5.78l2.63-.18v-6.33l-2.63.38V252.33h-6V283l-12.19,1.12v3.53h-.37c-.51.12-.69-.24-.56-1.12l-.38-17.67Zm55-14.15h7.31V251h6.56v3.72h9.38v5h-9.38v5.59h9.38V270l-8.63,12.48,3.56,4.65a2.49,2.49,0,0,0,2.45,1.11h2.62v4.84h-6.38a2.86,2.86,0,0,1-2.81-1.49l-3-4.1-3.75,4.85c-.25.49-1.06.74-2.44.74h-6.56v-4.84h3.93c.63.13,1.25-.25,1.89-1.11l3.56-4.47-7.69-10.05h7.31l3.75,5,4.69-7.26H427.87v-5h7.69v-5.59h-7.31v-5Zm-19.14,5.4h9.38v5L411,278c-.75,1.49-1.37,2.11-1.88,1.85h-.56v5.4H411a3.12,3.12,0,0,0,3.56-1.86l3.76-6.51V287c0,1-.38,1.43-1.13,1.3h-7.32v4.84H420q5.06.38,4.68-4.47V268.53h1.69v-6.15h-1.69v-2.23h2.44v-5.58h-2.44V251.4h-6.19v3.17h-9.38Z" transform="translate(-74.5 -218.5)"/><path class="cls-4" d="M262.51,346h-5.43V320.46h5.43v10.09h9.74V320.46h5.57V346h-5.43V334.83h-9.88V346Zm31.9-8.29c-3.8-.19-5.7.74-5.7,2.76,0,1.56.88,2.4,2.64,2.48q3.06.15,3.06-5.24Zm-4.87-4.42h-5.15a5,5,0,0,1,2.5-4.42,12.64,12.64,0,0,1,5.3-1.11q7.37.15,7.51,6.63v10.36A6.54,6.54,0,0,1,300,346h-4.74a11.16,11.16,0,0,1-.27-2.35c-1.12,1.74-3,2.62-5.57,2.62-3.81-.18-5.75-1.88-5.85-5.11a6.3,6.3,0,0,1,3.9-5.66,19.16,19.16,0,0,1,7-1v-1.66a2.51,2.51,0,0,0-2.5-2.21c-1.4.1-2.19,1-2.37,2.63Zm34.54,3.87q-.4,8.83-9.32,9.11-9-.27-9.33-9.11.29-9,9.33-9.4,8.91.42,9.32,9.4Zm-13.08,0q-.13,5.94,3.76,5.79c2.6.1,3.89-1.83,3.89-5.79s-1.29-5.95-3.89-5.95-3.85,2-3.76,5.95Zm32.15-12.43v6.76h4.6c2.5,0,3.8-1.19,3.89-3.59-.09-2.12-1.39-3.17-3.89-3.17Zm0,11.05V346h-5.56V320.46h11q8.78.27,8.91,6.63c-.09,3.32-1.86,5.39-5.29,6.22v.13q3.75.42,4.59,5.67a2.68,2.68,0,0,0,.14.83q.29,4.69,1.39,6.08h-6a34,34,0,0,1-1-6.91c-.28-2.21-1.07-3.31-2.37-3.31Zm30.23,1.93c-3.8-.19-5.7.74-5.7,2.76,0,1.56.87,2.4,2.64,2.48q3.06.15,3.06-5.24Zm-4.87-4.42h-5.15a5,5,0,0,1,2.5-4.42,12.64,12.64,0,0,1,5.3-1.11q7.36.15,7.51,6.63v10.36A6.54,6.54,0,0,1,379,346h-4.74a11.16,11.16,0,0,1-.27-2.35c-1.12,1.74-3,2.62-5.57,2.62-3.81-.18-5.75-1.88-5.85-5.11a6.3,6.3,0,0,1,3.9-5.66,19.16,19.16,0,0,1,7-1v-1.66a2.51,2.51,0,0,0-2.5-2.21c-1.4.1-2.19,1-2.37,2.63Zm22-5.11v2.07l.14.14c.92-1.66,2.73-2.53,5.43-2.63q4.72.69,5.84,3.87c.18,1.11.33,2,.42,2.76V346h-5.43V335.38q-.14-4-3.2-4.15-2.93.28-3.2,4.15V346h-5.3V328.2Zm31.73-7.74V346h-5.57V320.46Zm4.48,4.29v-4.29h20.88v4.29H440V346h-5.57V324.75Z" transform="translate(-74.5 -218.5)"/></svg>